# xmcd
#
# Track frame offsets:
#	150
#	12469
#	28007
#	41384
#	55362
#	68438
#	83649
#	94798
#	106173
#	118719
#	131475
#	146887
#	158176
#	177469
#
# Disc length: 2643 seconds
# Revision: 2
# Processed by: cddbd v1.5.2PL0 Copyright (c) Steve Scherf et al.
# Submitted via: dBpowerAMP V12.0
#
DISCID=b80a510e
DTITLE=Caitlin - North Bound
DYEAR=2006
DGENRE=Country
TTITLE0=Wild Flowers
TTITLE1=Hometown On The Foyle
TTITLE2=Dreaming My Dreams
TTITLE3=Summertime
TTITLE4=Will Ye Go Lassie Go
TTITLE5=Just A Closer Walk
TTITLE6=Guess It Doesn't Matter Anymore
TTITLE7=Mama And Papa's Waltz
TTITLE8=He Thinks I Still Care
TTITLE9=Say Goodbye
TTITLE10=Molly Bawn
TTITLE11=I Still Miss Someone
TTITLE12=Sweet Sixteen
TTITLE13=Childhood Memories
EXTD=
EXTT0=
EXTT1=
EXTT2=
EXTT3=
EXTT4=
EXTT5=
EXTT6=
EXTT7=
EXTT8=
EXTT9=
EXTT10=
EXTT11=
EXTT12=
EXTT13=
PLAYORDER=
